<?xml version="1.0" encoding="UTF-8" standalone="no"?>
<!-- Created with Inkscape (http://www.inkscape.org/) -->

<svg
   xmlns:dc="http://purl.org/dc/elements/1.1/"
   xmlns:cc="http://creativecommons.org/ns#"
   xmlns:rdf="http://www.w3.org/1999/02/22-rdf-syntax-ns#"
   xmlns:svg="http://www.w3.org/2000/svg"
   xmlns="http://www.w3.org/2000/svg"
   xmlns:sodipodi="http://sodipodi.sourceforge.net/DTD/sodipodi-0.dtd"
   xmlns:inkscape="http://www.inkscape.org/namespaces/inkscape"
   width="61.856052mm"
   height="61.856052mm"
   viewBox="0 0 61.856052 61.856052"
   version="1.1"
   id="svg1193"
   inkscape:version="0.92.5 (2060ec1f9f, 2020-04-08)"
   sodipodi:docname="icon.svg">
  <defs
     id="defs1187">
    <clipPath
       clipPathUnits="userSpaceOnUse"
       id="clipPath20">
      <path
         d="M 0,0 H 176 V 176 H 0 Z"
         id="path18"
         inkscape:connector-curvature="0" />
    </clipPath>
    <clipPath
       clipPathUnits="userSpaceOnUse"
       id="clipPath26">
      <path
         d="m 0,87.668 c 0,48.422 39.25,87.672 87.672,87.672 48.418,0 87.668,-39.25 87.668,-87.672 C 175.34,39.25 136.09,0 87.672,0 39.25,0 0,39.25 0,87.668 m 48.965,0 c 0,-21.375 17.328,-38.703 38.707,-38.703 21.375,0 38.703,17.328 38.703,38.703 0,21.379 -17.328,38.707 -38.703,38.707 -21.379,0 -38.707,-17.328 -38.707,-38.707"
         id="path24"
         inkscape:connector-curvature="0" />
    </clipPath>
    <clipPath
       clipPathUnits="userSpaceOnUse"
       id="clipPath36">
      <path
         d="M 0,0 H 462 V 176 H 0 Z"
         id="path34"
         inkscape:connector-curvature="0" />
    </clipPath>
    <clipPath
       clipPathUnits="userSpaceOnUse"
       id="clipPath46">
      <path
         d="m 0,87.668 c 0,48.422 39.25,87.672 87.672,87.672 48.418,0 87.668,-39.25 87.668,-87.672 C 175.34,39.25 136.09,0 87.672,0 39.25,0 0,39.25 0,87.668 m 48.965,0 c 0,-21.375 17.328,-38.703 38.707,-38.703 21.375,0 38.703,17.328 38.703,38.703 0,21.379 -17.328,38.707 -38.703,38.707 -21.379,0 -38.707,-17.328 -38.707,-38.707"
         id="path44"
         inkscape:connector-curvature="0" />
    </clipPath>
    <linearGradient
       x1="0"
       y1="0"
       x2="1"
       y2="0"
       gradientUnits="userSpaceOnUse"
       gradientTransform="matrix(175.34046,0,0,175.34046,4.17696e-5,87.669913)"
       spreadMethod="pad"
       id="linearGradient54">
      <stop
         style="stop-opacity:1;stop-color:#ade5fa"
         offset="0"
         id="stop50" />
      <stop
         style="stop-opacity:1;stop-color:#003e61"
         offset="1"
         id="stop52" />
    </linearGradient>
    <clipPath
       clipPathUnits="userSpaceOnUse"
       id="clipPath64">
      <path
         d="M 0,18 H 149 V 168 H 0 Z"
         id="path62"
         inkscape:connector-curvature="0" />
    </clipPath>
    <clipPath
       clipPathUnits="userSpaceOnUse"
       id="clipPath70">
      <path
         d="m 0,93.168 c 0,41.117 33.336,74.453 74.457,74.453 41.117,0 74.453,-33.336 74.453,-74.453 0,-41.121 -33.336,-74.457 -74.453,-74.457 C 33.336,18.711 0,52.047 0,93.168 m 48.945,-5.965 c 0,-21.387 17.336,-38.726 38.727,-38.726 21.387,0 38.723,17.339 38.723,38.726 0,21.387 -17.336,38.727 -38.723,38.727 -21.391,0 -38.727,-17.34 -38.727,-38.727"
         id="path68"
         inkscape:connector-curvature="0" />
    </clipPath>
    <clipPath
       clipPathUnits="userSpaceOnUse"
       id="clipPath80">
      <path
         d="M 0,0 H 462 V 176 H 0 Z"
         id="path78"
         inkscape:connector-curvature="0" />
    </clipPath>
    <clipPath
       clipPathUnits="userSpaceOnUse"
       id="clipPath90">
      <path
         d="m 0,93.168 c 0,41.117 33.336,74.453 74.457,74.453 41.117,0 74.453,-33.336 74.453,-74.453 0,-41.121 -33.336,-74.457 -74.453,-74.457 C 33.336,18.711 0,52.047 0,93.168 m 48.945,-5.965 c 0,-21.387 17.336,-38.726 38.727,-38.726 21.387,0 38.723,17.339 38.723,38.726 0,21.387 -17.336,38.727 -38.723,38.727 -21.391,0 -38.727,-17.34 -38.727,-38.727"
         id="path88"
         inkscape:connector-curvature="0" />
    </clipPath>
    <linearGradient
       x1="0"
       y1="0"
       x2="1"
       y2="0"
       gradientUnits="userSpaceOnUse"
       gradientTransform="matrix(148.91022,0,0,148.91022,4.17696e-5,93.166399)"
       spreadMethod="pad"
       id="linearGradient98">
      <stop
         style="stop-opacity:1;stop-color:#ade5fa"
         offset="0"
         id="stop94" />
      <stop
         style="stop-opacity:1;stop-color:#003e61"
         offset="1"
         id="stop96" />
    </linearGradient>
    <clipPath
       clipPathUnits="userSpaceOnUse"
       id="clipPath108">
      <path
         d="M 36,2 H 163 V 129 H 36 Z"
         id="path106"
         inkscape:connector-curvature="0" />
    </clipPath>
    <clipPath
       clipPathUnits="userSpaceOnUse"
       id="clipPath114">
      <path
         d="m 36.641,65.305 c 0,19.558 8.941,37.027 22.953,48.554 C 53,106.914 48.945,97.535 48.945,87.203 c 0,-21.387 17.336,-38.726 38.727,-38.726 21.387,0 38.723,17.339 38.723,38.726 0,21.387 -17.336,38.727 -38.723,38.727 -2.367,0 -4.68,-0.223 -6.93,-0.633 5.918,1.848 12.211,2.844 18.738,2.844 34.704,0 62.836,-28.133 62.836,-62.836 0,-34.707 -28.132,-62.84 -62.836,-62.84 -34.707,0 -62.839,28.133 -62.839,62.84"
         id="path112"
         inkscape:connector-curvature="0" />
    </clipPath>
    <clipPath
       clipPathUnits="userSpaceOnUse"
       id="clipPath124">
      <path
         d="M 0,0 H 462 V 176 H 0 Z"
         id="path122"
         inkscape:connector-curvature="0" />
    </clipPath>
    <clipPath
       clipPathUnits="userSpaceOnUse"
       id="clipPath134">
      <path
         d="m 36.641,65.305 c 0,19.558 8.941,37.027 22.953,48.554 C 53,106.914 48.945,97.535 48.945,87.203 c 0,-21.387 17.336,-38.726 38.727,-38.726 21.387,0 38.723,17.339 38.723,38.726 0,21.387 -17.336,38.727 -38.723,38.727 -2.367,0 -4.68,-0.223 -6.93,-0.633 5.918,1.848 12.211,2.844 18.738,2.844 34.704,0 62.836,-28.133 62.836,-62.836 0,-34.707 -28.132,-62.84 -62.836,-62.84 -34.707,0 -62.839,28.133 -62.839,62.84"
         id="path132"
         inkscape:connector-curvature="0" />
    </clipPath>
    <linearGradient
       x1="0"
       y1="0"
       x2="1"
       y2="0"
       gradientUnits="userSpaceOnUse"
       gradientTransform="matrix(88.864815,-88.864815,88.864815,88.864815,55.048228,109.73468)"
       spreadMethod="pad"
       id="linearGradient142">
      <stop
         style="stop-opacity:1;stop-color:#ade5fa"
         offset="0"
         id="stop138" />
      <stop
         style="stop-opacity:1;stop-color:#003e61"
         offset="1"
         id="stop140" />
    </linearGradient>
  </defs>
  <sodipodi:namedview
     id="base"
     pagecolor="#ffffff"
     bordercolor="#666666"
     borderopacity="1.0"
     inkscape:pageopacity="0.0"
     inkscape:pageshadow="2"
     inkscape:zoom="0.35"
     inkscape:cx="-988.82095"
     inkscape:cy="-168.82094"
     inkscape:document-units="mm"
     inkscape:current-layer="layer1"
     showgrid="false"
     inkscape:window-width="2560"
     inkscape:window-height="1381"
     inkscape:window-x="0"
     inkscape:window-y="27"
     inkscape:window-maximized="1"
     fit-margin-top="0"
     fit-margin-left="0"
     fit-margin-right="0"
     fit-margin-bottom="0" />
  <metadata
     id="metadata1190">
    <rdf:RDF>
      <cc:Work
         rdf:about="">
        <dc:format>image/svg+xml</dc:format>
        <dc:type
           rdf:resource="http://purl.org/dc/dcmitype/StillImage" />
        <dc:title></dc:title>
      </cc:Work>
    </rdf:RDF>
  </metadata>
  <g
     inkscape:label="Layer 1"
     inkscape:groupmode="layer"
     id="layer1"
     transform="translate(-71.125542,-42.310071)">
    <g
       transform="matrix(0.35277777,0,0,0.35277777,71.125542,42.310071)"
       id="g1110">
      <g
         id="g14">
        <g
           clip-path="url(#clipPath20)"
           id="g16">
          <g
             clip-path="url(#clipPath26)"
             id="g22">
            <g
               id="g28">
              <g
                 id="g30">
                <g
                   clip-path="url(#clipPath36)"
                   id="g32">
                  <g
                     id="g38">
                    <g
                       id="g40">
                      <g
                         clip-path="url(#clipPath46)"
                         id="g42">
                        <g
                           id="g48">
                          <path
                             inkscape:connector-curvature="0"
                             id="path56"
                             style="fill:url(#linearGradient54);stroke:none"
                             d="m 0,87.668 c 0,48.422 39.25,87.672 87.672,87.672 48.418,0 87.668,-39.25 87.668,-87.672 C 175.34,39.25 136.09,0 87.672,0 39.25,0 0,39.25 0,87.668 m 48.965,0 c 0,-21.375 17.328,-38.703 38.707,-38.703 21.375,0 38.703,17.328 38.703,38.703 0,21.379 -17.328,38.707 -38.703,38.707 -21.379,0 -38.707,-17.328 -38.707,-38.707" />
                        </g>
                      </g>
                    </g>
                  </g>
                </g>
              </g>
            </g>
          </g>
        </g>
      </g>
      <g
         id="g58">
        <g
           clip-path="url(#clipPath64)"
           id="g60">
          <g
             clip-path="url(#clipPath70)"
             id="g66">
            <g
               id="g72">
              <g
                 id="g74">
                <g
                   clip-path="url(#clipPath80)"
                   id="g76">
                  <g
                     id="g82">
                    <g
                       id="g84">
                      <g
                         clip-path="url(#clipPath90)"
                         id="g86">
                        <g
                           id="g92">
                          <path
                             inkscape:connector-curvature="0"
                             id="path100"
                             style="fill:url(#linearGradient98);stroke:none"
                             d="m 0,93.168 c 0,41.117 33.336,74.453 74.457,74.453 41.117,0 74.453,-33.336 74.453,-74.453 0,-41.121 -33.336,-74.457 -74.453,-74.457 C 33.336,18.711 0,52.047 0,93.168 m 48.945,-5.965 c 0,-21.387 17.336,-38.726 38.727,-38.726 21.387,0 38.723,17.339 38.723,38.726 0,21.387 -17.336,38.727 -38.723,38.727 -21.391,0 -38.727,-17.34 -38.727,-38.727" />
                        </g>
                      </g>
                    </g>
                  </g>
                </g>
              </g>
            </g>
          </g>
        </g>
      </g>
      <g
         id="g102">
        <g
           clip-path="url(#clipPath108)"
           id="g104">
          <g
             clip-path="url(#clipPath114)"
             id="g110">
            <g
               id="g116">
              <g
                 id="g118">
                <g
                   clip-path="url(#clipPath124)"
                   id="g120">
                  <g
                     id="g126">
                    <g
                       id="g128">
                      <g
                         clip-path="url(#clipPath134)"
                         id="g130">
                        <g
                           id="g136">
                          <path
                             inkscape:connector-curvature="0"
                             id="path144"
                             style="fill:url(#linearGradient142);stroke:none"
                             d="m 36.641,65.305 c 0,19.558 8.941,37.027 22.953,48.554 C 53,106.914 48.945,97.535 48.945,87.203 c 0,-21.387 17.336,-38.726 38.727,-38.726 21.387,0 38.723,17.339 38.723,38.726 0,21.387 -17.336,38.727 -38.723,38.727 -2.367,0 -4.68,-0.223 -6.93,-0.633 5.918,1.848 12.211,2.844 18.738,2.844 34.704,0 62.836,-28.133 62.836,-62.836 0,-34.707 -28.132,-62.84 -62.836,-62.84 -34.707,0 -62.839,28.133 -62.839,62.84" />
                        </g>
                      </g>
                    </g>
                  </g>
                </g>
              </g>
            </g>
          </g>
        </g>
      </g>
    </g>
  </g>
</svg>
